<svg xmlns="http://www.w3.org/2000/svg" width="22.138" height="25.578" viewBox="0 0 22.138 25.578"><path d="M22.133,24.738,20.189,6.225a.761.761,0,0,0-.757-.682H15.778V4.71a4.71,4.71,0,0,0-9.42,0v.833H2.7a.761.761,0,0,0-.757.682L0,24.738a.761.761,0,0,0,.757.841H21.376a.761.761,0,0,0,.757-.841ZM7.881,4.71a3.187,3.187,0,0,1,6.374,0v.833H7.881ZM1.606,24.056,3.39,7.066H6.359V8.743a.761.761,0,0,0,1.523,0V7.066h6.374V8.743a.761.761,0,0,0,1.523,0V7.066h2.968l1.784,16.99Zm0,0" transform="translate(0 0)"/></svg>